<?xml version="1.0" encoding="utf-8"?>
<!-- Generator: Adobe Illustrator 24.3.0, SVG Export Plug-In . SVG Version: 6.00 Build 0)  -->
<svg version="1.1" baseProfile="tiny" id="レイヤー_1"
	 xmlns="http://www.w3.org/2000/svg" xmlns:xlink="http://www.w3.org/1999/xlink" x="0px" y="0px" viewBox="0 0 512 512"
	 overflow="visible" xml:space="preserve">
<g>
	<path fill="#5382A1" d="M382,403.8h-1.9v-1.1h5.2v1.1h-1.9v5.4H382V403.8z M392.4,404L392.4,404l-1.9,5.1h-0.9l-1.9-5.1h0v5.1h-1.3
		v-6.5h1.9l1.8,4.6l1.8-4.6h1.9v6.5h-1.2L392.4,404L392.4,404z"/>
	<path fill="#5382A1" d="M209.4,271.6c0,0-13.4,7.8,9.6,10.4c27.8,3.2,42.1,2.7,72.7-3.1c0,0,8.1,5.1,19.3,9.4
		C242.2,317.9,155.4,286.7,209.4,271.6"/>
	<path fill="#5382A1" d="M201,233.1c0,0-15.1,11.1,7.9,13.5c29.7,3.1,53.2,3.3,93.8-4.5c0,0,5.6,5.7,14.5,8.8
		C234.1,275.3,141.5,252.9,201,233.1"/>
	<path fill="#F8981D" d="M271.8,167.9c16.9,19.5-4.5,37.1-4.5,37.1s43-22.2,23.3-50c-18.4-25.9-32.6-38.8,44-83.2
		C334.6,71.7,214.4,101.8,271.8,167.9"/>
	<path fill="#5382A1" d="M362.7,300c0,0,9.9,8.2-10.9,14.5c-39.7,12-165.2,15.7-200,0.5c-12.5-5.5,11-13,18.4-14.6
		c7.7-1.7,12.1-1.4,12.1-1.4c-13.9-9.8-90.1,19.3-38.7,27.6C283.7,349.4,399.1,316.4,362.7,300"/>
	<path fill="#5382A1" d="M215.8,193.3c0,0-63.8,15.2-22.6,20.7c17.4,2.3,52.1,1.8,84.4-0.9c26.4-2.2,52.9-7,52.9-7s-9.3,4-16.1,8.6
		c-64.8,17-190,9.1-154-8.3C191,191.6,215.8,193.3,215.8,193.3"/>
	<path fill="#5382A1" d="M330.3,257.3c65.9-34.2,35.4-67.1,14.2-62.7c-5.2,1.1-7.5,2-7.5,2s1.9-3,5.6-4.3
		c42.1-14.8,74.4,43.6-13.6,66.8C329,259,330,258.1,330.3,257.3"/>
	<path fill="#F8981D" d="M290.6,0c0,0,36.5,36.5-34.6,92.6c-57,45-13,70.7,0,100c-33.3-30-57.7-56.5-41.3-81.1
		C238.7,75.5,305.3,58,290.6,0"/>
	<path fill="#5382A1" d="M222.3,350.1c63.2,4,160.4-2.2,162.7-32.2c0,0-4.4,11.3-52.3,20.4c-54,10.2-120.6,9-160,2.5
		C172.7,340.7,180.7,347.4,222.3,350.1"/>
	<path fill="#5382A1" d="M211.9,464.4c-6,5.2-12.3,8.1-17.9,8.1c-8.1,0-12.4-4.8-12.4-12.6c0-8.4,4.7-14.5,23.4-14.5h6.9
		L211.9,464.4 M228.4,483v-57.5c0-14.7-8.4-24.4-28.6-24.4c-11.8,0-22.1,2.9-30.5,6.6l2.4,10.2c6.6-2.4,15.2-4.7,23.6-4.7
		c11.6,0,16.6,4.7,16.6,14.4v7.3h-5.8c-28.3,0-41,11-41,27.4c0,14.2,8.4,22.3,24.2,22.3c10.2,0,17.8-4.2,24.9-10.3l1.3,8.7
		L228.4,483L228.4,483z"/>
	<path fill="#5382A1" d="M283.3,483h-20.5l-24.7-80.4H256l15.3,49.4l3.4,14.9c7.8-21.5,13.2-43.3,16-64.3h17.4
		C303.5,429.1,295.1,458.1,283.3,483"/>
	<path fill="#5382A1" d="M362.1,464.4c-6,5.2-12.3,8.1-17.9,8.1c-8.1,0-12.4-4.8-12.4-12.6c0-8.4,4.7-14.5,23.4-14.5h6.9V464.4
		 M378.6,483v-57.5c0-14.7-8.4-24.4-28.6-24.4c-11.8,0-22.1,2.9-30.5,6.6l2.4,10.2c6.6-2.4,15.2-4.7,23.6-4.7
		c11.6,0,16.6,4.7,16.6,14.4v7.3h-5.8c-28.3,0-41,11-41,27.4c0,14.2,8.4,22.3,24.2,22.3c10.2,0,17.8-4.2,24.9-10.3l1.3,8.7
		L378.6,483L378.6,483z"/>
	<path fill="#5382A1" d="M147.1,496.7c-4.7,6.9-12.3,12.3-20.6,15.3l-8.1-9.6c6.3-3.2,11.7-8.5,14.3-13.4c2.2-4.3,3.1-9.9,3.1-23.3
		V374h17.5v90.6C153.2,482.4,151.7,489.6,147.1,496.7"/>
</g>
</svg>
