<?xml version="1.0" encoding="utf-8"?>
<!-- Generator: Adobe Illustrator 24.3.0, SVG Export Plug-In . SVG Version: 6.00 Build 0)  -->
<svg version="1.1" baseProfile="tiny" id="レイヤー_1"
	 xmlns="http://www.w3.org/2000/svg" xmlns:xlink="http://www.w3.org/1999/xlink" x="0px" y="0px" viewBox="0 0 512 512"
	 overflow="visible" xml:space="preserve">
<polygon id="polygon2989" fill="#264DE4" points="437.4,100.6 404.3,470.8 255.8,512 107.6,470.9 74.6,100.6 "/>
<polygon id="polygon2991" fill="#2965F1" points="376,447.2 404.3,130.9 256,130.9 256,480.5 "/>
<polygon id="polygon2993" fill="#EBEBEB" points="150.3,268.2 154.4,313.6 256,313.6 256,268.2 "/>
<polygon id="polygon2995" fill="#EBEBEB" points="256,176.3 255.8,176.3 142.1,176.3 146.3,221.7 256,221.7 "/>
<polygon id="polygon2997" fill="#EBEBEB" points="256,433.4 256,386.2 255.8,386.2 205.2,372.5 202,336.3 177.4,336.3 156.4,336.3 
	162.8,407.6 255.8,433.5 "/>
<path id="path2999" fill="#FFFFFF" d="M160,0h55v23h-32v23h32v23h-55V0z"/>
<path id="path3001" fill="#FFFFFF" d="M226,0h55v20h-32v4h32v46h-55V49h32v-4h-32V0z"/>
<path id="path3003" fill="#FFFFFF" d="M292,0h55v20h-32v4h32v46h-55V49h32v-4h-32V0z"/>
<polygon id="polygon3005" fill="#FFFFFF" points="311.8,313.6 306.5,372.5 255.8,386.2 255.8,433.4 348.9,407.6 349.6,400 
	360.3,280.4 361.4,268.2 369.6,176.3 255.8,176.3 255.8,221.7 319.8,221.7 315.7,268.2 255.8,268.2 255.8,313.6 "/>
</svg>
