<?xml version="1.0" encoding="utf-8"?>
<!-- Generator: Adobe Illustrator 24.3.0, SVG Export Plug-In . SVG Version: 6.00 Build 0)  -->
<svg version="1.1" baseProfile="tiny" id="レイヤー_1"
	 xmlns="http://www.w3.org/2000/svg" xmlns:xlink="http://www.w3.org/1999/xlink" x="0px" y="0px" viewBox="0 0 512 512"
	 overflow="visible" xml:space="preserve">
<g id="layer1" transform="translate(-193.633,-276.3622)">
	<g id="g3013" transform="translate(119,276.3622)">
		<polygon id="polygon2989" fill="#264DE4" points="512,100.6 479,470.8 330.4,512 182.3,470.9 149.3,100.6 		"/>
		<polygon id="polygon2991" fill="#2965F1" points="450.7,447.2 478.9,130.9 330.6,130.9 330.6,480.5 		"/>
		<polygon id="polygon2993" fill="#EBEBEB" points="224.9,268.2 229,313.6 330.6,313.6 330.6,268.2 		"/>
		<polygon id="polygon2995" fill="#EBEBEB" points="330.6,176.3 330.5,176.3 216.8,176.3 220.9,221.7 330.6,221.7 		"/>
		<polygon id="polygon2997" fill="#EBEBEB" points="330.6,433.4 330.6,386.2 330.4,386.2 279.9,372.5 276.6,336.3 252.1,336.3 
			231,336.3 237.4,407.6 330.4,433.5 		"/>
		<path id="path2999" d="M234.6,0h55v23h-32v23h32v23h-55V0z"/>
		<path id="path3001" d="M300.6,0h55v20h-32v4h32v46h-55V49h32v-4h-32V0z"/>
		<path id="path3003" d="M366.6,0h55v20h-32v4h32v46h-55V49h32v-4h-32V0z"/>
		<polygon id="polygon3005" fill="#FFFFFF" points="386.4,313.6 381.1,372.5 330.5,386.2 330.5,433.4 423.6,407.6 424.3,400 
			434.9,280.4 436,268.2 444.2,176.3 330.5,176.3 330.5,221.7 394.5,221.7 390.3,268.2 330.5,268.2 330.5,313.6 		"/>
	</g>
</g>
</svg>
