<svg xmlns="http://www.w3.org/2000/svg" width="262.36" height="431.14" viewBox="0 0 262.36 431.14">
  <defs>
    <style>
      .cls-1 {
        fill: none;
        stroke: #292929;
        stroke-width: 0.8px;
        fill-rule: evenodd;
      }
    </style>
  </defs>
  <path id="parts-svg_sample_line_2.svg" data-name="parts-svg/sample_line_2.svg" class="cls-1" d="M1483.76,3908.08c-5.48-44.18-7.56-80.66-8.26-74.57-1.17,10.16,2.79,90.75,10.7,100.31-2.44-1.7-1.46-6.31-7.06-8.5s7.06,12.39,7.06,15.31c-7.54-6.81-3.89-2.19,0,6.55s2.43,24.29,2.43,34.98,6.81,55.38,6.81,55.38l1.94,37.4s0,12.63,5.97,14.58,2.3,1.94-.62,16.03c1.28,5.75,5.85,82.14,3.89,85.98-1.73,3.39-11.82-60.03-12.6-63.48-0.86-3.77-17.78,14.44-17.02,3.95,10-5.67,3.63-34.74-4.15-43.97-0.49,9.55-27.29,25.54-36.48,3.06-4.97-12.15.99-22.55,11.72-25.26-5.12-4.19-23.58-2.11-26.5,13.92-5.75-9.83-19.95-11-31.69.54-7.02,6.89-9.48,42.5-9.48,42.5s7.66,41.53,6.56,51.74-5.29,29.69-5.29,32.97,1.83-.91,1.83-0.91l1.09-5.1,2.48,1.64-1.2,7.83s6.02-6.74,5.47-20.04a62.892,62.892,0,0,0,.91-11.11l1.46-1.82s-3.28-12.21-2.55-15.49c1.09,0,2.55,4.37,2.55,4.37v-9.65l3.28,4.19v-9.11s-2-12.2-3.1-14.94c0.55-4.91,2.56-5.64.73-13.29-0.36-6.2-4.37-26.78-7.48-28.42,0.73-4.01-5.83-19.68-7.84-27.15,0.55-4,.37-15.84.37-15.84s6.32-16.82,5.83-33.7c9.73-4.01,15.25-34.05,15.25-34.05,0-3.4-8.44-41.61-10.87-45.01s6.81-27.21,7.11-30.61-6.62-35.94-7.11-42.26,1.46-23.8,0-29.15a17.743,17.743,0,0,0-4.86-8.25s1.94-12.15.48-12.63-9.24-20.89-9.24-30.12-11.67,4.37-8.27,26.23c5.35,21.86,1.95,37.89,3.41,40.32s0,7.28-.49,13.6c1.95,3.4,2.92,34.49,6.81,44.93,2.49,6.69-.24,15.82,1.13,16.82-1.1,2.83-.14,5.23-1.25,6.38,0.05,0.47,3.31,9.12,7.9,11.29,17.99,8.51,22.53-1,25.54-6.19,0.95-1.64,5.65-9.65,6.52-11.16a41.107,41.107,0,0,1,2.96-4.05c0.55-1.23,1.87-2.32,2.23-3.14s2.12-2.42,2.18-2.17a1.973,1.973,0,0,0,1.43.54c0.18-.15-0.67-1.33-0.67-1.33l0.94-.7,1.49,0.61s-0.13-1.1-.18-1.49a1.5,1.5,0,0,0,.91-0.55c0.73-1.09,1.94-.97,2.86-1.21s3.16-4.86,5.83-8.93c0.31,5.71-4.34,9.12-4.34,10.26s-1.19,1.73-2.06,1.92-3.19,2.46-5.1,3.18c-0.9.35-.38,1.64-0.9,1.95-0.31.18-1.91-.7-1.88-0.37,0.01,0.19,1.28,1.11.76,1.06-0.47-.05-1.78.05-1.52,0.21a3.337,3.337,0,0,0,1.94.34,8.607,8.607,0,0,1,3.51-.86c0.5,0,3.33-1.92,3.88-1.92s0.64,1.83,1.05,2.69,0.5-.82.5-1.78a4.322,4.322,0,0,0-.28-1.59l2.79-1.09,1.41,1.36,0.96-.5-1.14-1.55a8.585,8.585,0,0,1,1.87-.4c0.63,0,.91,1.86.91,1.86a0.689,0.689,0,0,0,.64-1c-0.28-1-.69-1.5-0.14-2.09a5.065,5.065,0,0,1,3.19-.92c0.41-.41,3.24-1.13,6.7-1.41s5.79,1.96,4.33,1.6c-3-1.46-7.25.22-8.48,0.82,0.51,0.73-.82,3.32-1.18,3.37s0.45-1.32,0-1.92a2.493,2.493,0,0,0-1.73-.54s1.68,2.59,0,2.96-3.93,0-4.65.18a9.141,9.141,0,0,0-2.47,1.78,3.55,3.55,0,0,0-1.96-2.19,12.972,12.972,0,0,1,1.14,2.5,27.428,27.428,0,0,1-3.01,2.24l-1.32-2.65-0.87.46s1.33,2.41.64,2.64a14.043,14.043,0,0,0-4.51,4.33c-0.78,1.59.64,3.09-.05,3.91s-2,5.24-2,5.24,2.73-3.19,2.78-2.37,0,2.6-.64,2.64-1,2.56-1,2.56a5.243,5.243,0,0,1,2.32-1.05c0.96,0-.13,2.05-1.27,2.82s-0.32,1.64.41,1.46,2.09-.41,1.73-0.05-1.32,1.87-1.1,2.1,0.96-.68,1.78-0.91a0.751,0.751,0,0,1,.73,1.23,7.591,7.591,0,0,0-1.18,1.45l1.73-.63s1.73,1.73,1.55,3.37c0.36,1.64,4.01,5.92,4.1,7.47,0.12,2.03-7.11-7.56-8.84-9.66s-4.74-9.84-4.74-9.84v-6.1l-2.01,2.37s-3.44,6.83-3.44,4.28-6.21,15.69-7.32,16.76c-1.55,1.49-16.6,26.25-24.62,23.13-7.25-2.81-12.22-8.79-6.57-28.23,1.6-5.49-1.82-9.84-4.92-16.21,1.28-7.29-6.02-20.41-8.03-22.59s-7.29-5.65-13.31-10.39c-4.01-5.83-11.99-5.99-13.5-7.83-3.28-4.01-8.99-.85-8.99-0.85s5.35,2.67,7.29,4.86c7.48-.37,8.51,3.88,3.16,4.37,6.57,0.97,11.92,2.43,14.59,14.33s-2.67,15.3-6.32,14.57c0.24,3.4.24,4.13-.73,6.56,1.7,3.4,1.22,13.85,1.22,13.85s-5.35,3.88-5.84,8.25c-8.27-1.94,2.68,13.85,2.68,13.85a58.247,58.247,0,0,1-6.33,6.8c1.46,3.16.49,8.99,0.49,8.99a15.364,15.364,0,0,1-4.13,2.67c3.16,9.71,2.18,10.69-.98,12.63,0,4.86,6.33,14.03,6.33,14.03,11.18,7.72,25.65,55.25,25.65,55.25-8.75,15.67-3.28,40.08-4.01,48.09a33.7,33.7,0,0,0,4.74,9.84l4.92,2.92a41.718,41.718,0,0,1-2.55-10.21,8.98,8.98,0,0,1,4.93-8.74c3.46,4.37,7.65,36.62,7.65,36.62l-2.91,2.73s-0.19,4.19.06,9.11c1.16,3.09.85,13.84-.06,18.94,0.36,4.37-.91,24.05-0.91,24.05l-1.83-1.64s-0.36-8.02-1.82-10.75c0.36-3.1-.55-11.11-2.74-18.22,0.18-9.1-3.1-21.67-3.1-21.67l-4.19-4.38-1.83-6.55v5.64l-2.19-3.28v-6.01l-2.55-1.45v-3.1s-4.19-5.65-4.21-7.47-2.72-19.13-2.72-23.14c-0.91-.18-7.11-12.56-8.57-16.21a6.36,6.36,0,0,1-3.28-1.27l-2.74-5.1a11.054,11.054,0,0,1,.18,3.09c-2.73-1.45-5.29-5.83-7.29-11.47-3.29-3.1-7.36-16.22-9.3-22.05-4.87-2.91-14.59-39.83-17.51-46.63,0.73,0.97,5.83,7.77,8.51,9.72,0.73-3.4.73-13.12-2.43-17.73s-4.38-21.38-4.38-21.38l2.76,1.22c-2.09-12.15-13.95-18.46-13.95-34.98,0-10.32,3.33-17.01,5.82-18.39,1.5-.83,2.7,2.12,2.7,2.12,1.94-1.22.5-6.29,1.94-5.35,2.31,1.52,3.89,6.07,5.84,3.16s6.08-9.96,6.81-14.09-2.13-5.22-.98-10.2c-2.91,0-3.64,7.05-6.32,5.83s-6.08-4.13-9-.73-8.49,6.31-8.49,6.31a27.825,27.825,0,0,1-4.76-.72c-1.29-.51-4.26-7.53-7.17-7.29-2.68.97-10.09-3.16-10.09-3.16l-4.38-8.98s-17.69-3.16-18.79-12.15c-0.12-.99-1.64-7.1-1.09-8.98-0.37-2.98.42-6.93,0.42-7.65s2.56-5.47,3.29-6.68c0.12,1.58.26,4.05,1.62,1.5a37.981,37.981,0,0,1,2.69-4.83,4.26,4.26,0,0,0,.46,2.37s0.68-2.46,1.6-2.87a3.067,3.067,0,0,0,2.09-2.91c1.01-.96,2.88-0.96,2.92-0.55,0.41-.64,1.37-2.5,1.37-2.5l2.87-.72s-3.34-1.03-4.5.24-0.91,1.64-4.07,2.37c-0.91,1.95-2.07,2.37-3.95,1.76-1.04,2.49-4.2-.3-1.77-3.64,1.16-2.13,9.79-10.38,17.33-10.5,4.26-2.31,11.19-3.59,16.84-3.04,6.02,0.18,16.41.55,22.7,5.83,5.2-1.82,41.74-13.48,45.75-13.85,1.58,0.49.85,2.8,0.85,2.8-2.18,1.21-14.83,8.74-17.5,11.53-3.53,2.07-20.8,9.36-25.42,13.24a5.255,5.255,0,0,0-3.68-2.55s-0.81,0-4.1-.12c-2.92,1.34-6.44,2.43-7.41,2.31,1.35-1.79,4.81-5.44,6.68-5.98s8.57-2.83,9.3-4.56,0.41-2.59,1.46-3.32c-2.19.63-5.83,0.95-7.56,1.77-1.65-1.09-4.75-3.18-4.84-2.37,0.64,1.19,1,3.47-.27,3.47-0.82,1.18-1,3.64-4.11,2.55,1.77-.26-15.01.9-13.04,0.9,0.18,0.79,1,1.1,2.82,1.64s3.92,2.28,3.74,4.19-1.46,4.19-2.28,4.37c1.37-1.82,1.55-4.82-.18-6.1s-4.65-1.91-6.29-.36-1.37,5.37-.37,6.01a7.827,7.827,0,0,0,3.74,1.05c0.96-.6,2.51-2.23,1.37-2.05s-3.19.54-3.74-1.64c0.55-2.19,1.91-2.32,2.64-2.32s2.69,0.59,2.88,1.73-0.41,3.46-1.46,3.96c-0.87,1.36-3.5,1.43-4.84,2.77s-3.04,4.37-8.15,5.34-14.22,1.21-8.27,2.79c-2.67,3.04-1.33,5.47-.24,3.4-1.03,3.95-.3,5.1-0.3,5.1a1.658,1.658,0,0,1,1.76.79c0.49-1.58,1.16-3.4,1.16-3.4s-0.31,4.56,1.27,6.5c0.37-2.79-.24-6.56,1.1-8.38a16.769,16.769,0,0,1,3.77-3.4s-0.98,1.94.48,1.94,5.11-3.4,5.35-3.88c-2.55,3.64-3.65,6.8-3.4,7.77,0,0,11.31-7.65,13.98-7.65s5.84,1.45,5.84,4.13-14.84,28.17-8.03,38.37c0,0-10.7.49-11,13.66-2.19,20.95,7.84,48.28,8.57,50.65s3.46,9.29,3.46,11.31c0.73,0.57,2.74-.2,3.83,1.62,0.55,0.91-1.21,7.29,2.19,16.03" transform="translate(-1245.13 -3782.76)"/>
</svg>
